<svg width="208" height="23" viewBox="0 0 208 23" fill="none" xmlns="http://www.w3.org/2000/svg">
<g clip-path="url(#clip0_1_38)">
<path d="M21.0966 8.9125C21.039 8.74268 20.9329 8.59347 20.7914 8.48328C20.6499 8.3731 20.4792 8.30675 20.3005 8.29245L15.0713 7.87694L12.8085 2.86792C12.7364 2.70659 12.6192 2.56957 12.471 2.47338C12.3228 2.3772 12.1499 2.32596 11.9732 2.32587C11.7965 2.32577 11.6236 2.37681 11.4752 2.47283C11.3269 2.56886 11.2095 2.70575 11.1373 2.86701L8.87449 7.87694L3.64533 8.29245C3.46964 8.30636 3.30168 8.3706 3.16154 8.47748C3.02141 8.58436 2.91503 8.72934 2.85513 8.89509C2.79524 9.06085 2.78436 9.24035 2.82381 9.41212C2.86326 9.58389 2.95136 9.74065 3.07757 9.86367L6.94187 13.6307L5.57519 19.5487C5.5337 19.7279 5.547 19.9153 5.61337 20.0868C5.67974 20.2583 5.79612 20.4059 5.94741 20.5104C6.0987 20.6149 6.2779 20.6716 6.46178 20.673C6.64565 20.6744 6.8257 20.6205 6.97856 20.5183L11.9729 17.1887L16.9672 20.5183C17.1235 20.622 17.3077 20.6754 17.4952 20.6713C17.6827 20.6672 17.8645 20.6057 18.016 20.4953C18.1675 20.3848 18.2816 20.2305 18.3429 20.0533C18.4041 19.876 18.4097 19.6843 18.3587 19.5038L16.6811 13.6335L20.8416 9.88935C21.1141 9.64353 21.214 9.26013 21.0966 8.9125Z" fill="#F3CD03"/>
<path d="M48.1115 8.9125C48.0539 8.74268 47.9478 8.59347 47.8063 8.48328C47.6648 8.3731 47.4941 8.30675 47.3154 8.29245L42.0862 7.87694L39.8234 2.86792C39.7513 2.70659 39.6341 2.56957 39.4859 2.47338C39.3377 2.3772 39.1648 2.32596 38.9881 2.32587C38.8114 2.32577 38.6385 2.37681 38.4901 2.47283C38.3418 2.56886 38.2244 2.70575 38.1522 2.86701L35.8894 7.87694L30.6602 8.29245C30.4845 8.30636 30.3166 8.3706 30.1764 8.47748C30.0363 8.58436 29.9299 8.72934 29.87 8.89509C29.8101 9.06085 29.7993 9.24035 29.8387 9.41212C29.8781 9.58389 29.9662 9.74065 30.0925 9.86367L33.9568 13.6307L32.5901 19.5487C32.5486 19.7279 32.5619 19.9153 32.6283 20.0868C32.6946 20.2583 32.811 20.4059 32.9623 20.5104C33.1136 20.6149 33.2928 20.6716 33.4767 20.673C33.6605 20.6744 33.8406 20.6205 33.9935 20.5183L38.9878 17.1887L43.9821 20.5183C44.1384 20.622 44.3226 20.6754 44.5101 20.6713C44.6976 20.6672 44.8794 20.6057 45.0309 20.4953C45.1824 20.3848 45.2965 20.2305 45.3578 20.0533C45.419 19.876 45.4246 19.6843 45.3736 19.5038L43.696 13.6335L47.8565 9.88935C48.129 9.64353 48.2289 9.26013 48.1115 8.9125Z" fill="#F3CD03"/>
<path d="M75.1228 8.9125C75.0651 8.74268 74.959 8.59347 74.8175 8.48328C74.676 8.3731 74.5054 8.30675 74.3266 8.29245L69.0974 7.87694L66.8346 2.86792C66.7626 2.70659 66.6453 2.56957 66.4971 2.47338C66.3489 2.3772 66.176 2.32596 65.9993 2.32587C65.8226 2.32577 65.6497 2.37681 65.5014 2.47283C65.353 2.56886 65.2357 2.70575 65.1634 2.86701L62.9006 7.87694L57.6715 8.29245C57.4958 8.30636 57.3278 8.3706 57.1877 8.47748C57.0475 8.58436 56.9411 8.72934 56.8813 8.89509C56.8214 9.06085 56.8105 9.24035 56.8499 9.41212C56.8894 9.58389 56.9775 9.74065 57.1037 9.86367L60.968 13.6307L59.6013 19.5487C59.5598 19.7279 59.5731 19.9153 59.6395 20.0868C59.7059 20.2583 59.8222 20.4059 59.9735 20.5104C60.1248 20.6149 60.304 20.6716 60.4879 20.673C60.6718 20.6744 60.8518 20.6205 61.0047 20.5183L65.999 17.1887L70.9934 20.5183C71.1496 20.622 71.3339 20.6754 71.5214 20.6713C71.7088 20.6672 71.8906 20.6057 72.0421 20.4953C72.1937 20.3848 72.3077 20.2305 72.369 20.0533C72.4303 19.876 72.4358 19.6843 72.3848 19.5038L70.7072 13.6335L74.8678 9.88935C75.1402 9.64353 75.2402 9.26013 75.1228 8.9125Z" fill="#F3CD03"/>
<path d="M102.136 8.9125C102.079 8.74268 101.973 8.59347 101.831 8.48328C101.69 8.3731 101.519 8.30675 101.34 8.29245L96.1111 7.87694L93.8483 2.86792C93.7762 2.70659 93.659 2.56957 93.5108 2.47338C93.3626 2.3772 93.1897 2.32596 93.013 2.32587C92.8363 2.32577 92.6634 2.37681 92.515 2.47283C92.3667 2.56886 92.2493 2.70575 92.1771 2.86701L89.9143 7.87694L84.6851 8.29245C84.5094 8.30636 84.3415 8.3706 84.2013 8.47748C84.0612 8.58436 83.9548 8.72934 83.8949 8.89509C83.835 9.06085 83.8242 9.24035 83.8636 9.41212C83.9031 9.58389 83.9912 9.74065 84.1174 9.86367L87.9817 13.6307L86.615 19.5487C86.5735 19.7279 86.5868 19.9153 86.6532 20.0868C86.7195 20.2583 86.8359 20.4059 86.9872 20.5104C87.1385 20.6149 87.3177 20.6716 87.5016 20.673C87.6854 20.6744 87.8655 20.6205 88.0184 20.5183L93.0127 17.1887L98.007 20.5183C98.1633 20.622 98.3475 20.6754 98.535 20.6713C98.7225 20.6672 98.9043 20.6057 99.0558 20.4953C99.2073 20.3848 99.3214 20.2305 99.3827 20.0533C99.4439 19.876 99.4495 19.6843 99.3985 19.5038L97.7209 13.6335L101.881 9.88935C102.154 9.64353 102.254 9.26013 102.136 8.9125Z" fill="#F3CD03"/>
<path d="M114.997 13.6308L113.631 19.5488C113.588 19.728 113.601 19.9158 113.667 20.0877C113.733 20.2596 113.85 20.4075 114.001 20.5122C114.153 20.6169 114.332 20.6735 114.516 20.6746C114.7 20.6757 114.881 20.6212 115.033 20.5183L120.028 17.1888L125.022 20.5183C125.178 20.6221 125.362 20.6755 125.55 20.6714C125.737 20.6673 125.919 20.6058 126.071 20.4953C126.222 20.3849 126.336 20.2306 126.398 20.0534C126.459 19.8761 126.464 19.6844 126.413 19.5039L124.736 13.6336L128.896 9.88944C129.03 9.76946 129.125 9.61304 129.17 9.43955C129.215 9.26605 129.209 9.08308 129.151 8.91327C129.094 8.74345 128.988 8.59424 128.846 8.48408C128.705 8.37392 128.534 8.30764 128.355 8.29345L123.126 7.87703L120.863 2.86801C120.791 2.70672 120.674 2.56976 120.525 2.47366C120.377 2.37755 120.204 2.32642 120.028 2.32642C119.851 2.32642 119.678 2.37755 119.53 2.47366C119.381 2.56976 119.264 2.70672 119.192 2.86801L116.929 7.87703L111.7 8.29254C111.524 8.30645 111.356 8.37069 111.216 8.47757C111.076 8.58445 110.97 8.72943 110.91 8.89518C110.85 9.06094 110.839 9.24044 110.878 9.41221C110.918 9.58398 111.006 9.74074 111.132 9.86376L114.997 13.6308ZM117.614 9.66288C117.778 9.64998 117.935 9.59328 118.07 9.49871C118.204 9.40414 118.31 9.27519 118.377 9.12538L120.028 5.47387L121.678 9.12538C121.745 9.27519 121.851 9.40414 121.986 9.49871C122.12 9.59328 122.277 9.64998 122.441 9.66288L126.084 9.95181L123.084 12.6521C122.823 12.887 122.72 13.2484 122.815 13.5859L123.964 17.608L120.538 15.3231C120.387 15.2222 120.21 15.1683 120.029 15.1683C119.848 15.1683 119.671 15.2222 119.52 15.3231L115.939 17.7107L116.903 13.5409C116.938 13.3876 116.933 13.2277 116.889 13.0767C116.844 12.9257 116.762 12.7887 116.649 12.6787L113.863 9.9619L117.614 9.66288Z" fill="#F3CD03"/>
</g>
<path d="M144.669 10.7C145.549 10.748 146.217 10.988 146.673 11.42C147.137 11.844 147.369 12.4 147.369 13.088C147.369 13.568 147.253 13.996 147.021 14.372C146.789 14.74 146.445 15.032 145.989 15.248C145.533 15.464 144.977 15.572 144.321 15.572C143.713 15.572 143.137 15.476 142.593 15.284C142.057 15.084 141.625 14.82 141.297 14.492L141.717 13.808C141.997 14.096 142.369 14.332 142.833 14.516C143.297 14.692 143.793 14.78 144.321 14.78C145.009 14.78 145.541 14.632 145.917 14.336C146.293 14.032 146.481 13.616 146.481 13.088C146.481 12.568 146.293 12.16 145.917 11.864C145.541 11.568 144.973 11.42 144.213 11.42H143.613V10.784L145.941 7.868H141.645V7.1H147.045V7.712L144.669 10.7ZM152.134 15.572C151.486 15.572 150.906 15.4 150.394 15.056C149.89 14.712 149.494 14.22 149.206 13.58C148.926 12.932 148.786 12.172 148.786 11.3C148.786 10.428 148.926 9.672 149.206 9.032C149.494 8.384 149.89 7.888 150.394 7.544C150.906 7.2 151.486 7.028 152.134 7.028C152.782 7.028 153.358 7.2 153.862 7.544C154.374 7.888 154.774 8.384 155.062 9.032C155.35 9.672 155.494 10.428 155.494 11.3C155.494 12.172 155.35 12.932 155.062 13.58C154.774 14.22 154.374 14.712 153.862 15.056C153.358 15.4 152.782 15.572 152.134 15.572ZM152.134 14.78C152.622 14.78 153.05 14.644 153.418 14.372C153.794 14.1 154.086 13.704 154.294 13.184C154.502 12.664 154.606 12.036 154.606 11.3C154.606 10.564 154.502 9.936 154.294 9.416C154.086 8.896 153.794 8.5 153.418 8.228C153.05 7.956 152.622 7.82 152.134 7.82C151.646 7.82 151.214 7.956 150.838 8.228C150.47 8.5 150.182 8.896 149.974 9.416C149.766 9.936 149.662 10.564 149.662 11.3C149.662 12.036 149.766 12.664 149.974 13.184C150.182 13.704 150.47 14.1 150.838 14.372C151.214 14.644 151.646 14.78 152.134 14.78ZM166.752 15.5L164.832 12.8C164.616 12.824 164.392 12.836 164.16 12.836H161.904V15.5H161.016V7.1H164.16C165.232 7.1 166.072 7.356 166.68 7.868C167.288 8.38 167.592 9.084 167.592 9.98C167.592 10.636 167.424 11.192 167.088 11.648C166.76 12.096 166.288 12.42 165.672 12.62L167.724 15.5H166.752ZM164.136 12.08C164.968 12.08 165.604 11.896 166.044 11.528C166.484 11.16 166.704 10.644 166.704 9.98C166.704 9.3 166.484 8.78 166.044 8.42C165.604 8.052 164.968 7.868 164.136 7.868H161.904V12.08H164.136ZM171.857 9.14C172.681 9.14 173.313 9.348 173.753 9.764C174.193 10.172 174.413 10.78 174.413 11.588V15.5H173.597V14.516C173.405 14.844 173.121 15.1 172.745 15.284C172.377 15.468 171.937 15.56 171.425 15.56C170.721 15.56 170.161 15.392 169.745 15.056C169.329 14.72 169.121 14.276 169.121 13.724C169.121 13.188 169.313 12.756 169.697 12.428C170.089 12.1 170.709 11.936 171.557 11.936H173.561V11.552C173.561 11.008 173.409 10.596 173.105 10.316C172.801 10.028 172.357 9.884 171.773 9.884C171.373 9.884 170.989 9.952 170.621 10.088C170.253 10.216 169.937 10.396 169.673 10.628L169.289 9.992C169.609 9.72 169.993 9.512 170.441 9.368C170.889 9.216 171.361 9.14 171.857 9.14ZM171.557 14.888C172.037 14.888 172.449 14.78 172.793 14.564C173.137 14.34 173.393 14.02 173.561 13.604V12.572H171.581C170.501 12.572 169.961 12.948 169.961 13.7C169.961 14.068 170.101 14.36 170.381 14.576C170.661 14.784 171.053 14.888 171.557 14.888ZM180.251 15.116C180.091 15.26 179.891 15.372 179.651 15.452C179.419 15.524 179.175 15.56 178.919 15.56C178.327 15.56 177.871 15.4 177.551 15.08C177.231 14.76 177.071 14.308 177.071 13.724V9.908H175.943V9.188H177.071V7.808H177.923V9.188H179.843V9.908H177.923V13.676C177.923 14.052 178.015 14.34 178.199 14.54C178.391 14.732 178.663 14.828 179.015 14.828C179.191 14.828 179.359 14.8 179.519 14.744C179.687 14.688 179.831 14.608 179.951 14.504L180.251 15.116ZM182.002 9.188H182.854V15.5H182.002V9.188ZM182.434 7.808C182.258 7.808 182.11 7.748 181.99 7.628C181.87 7.508 181.81 7.364 181.81 7.196C181.81 7.036 181.87 6.896 181.99 6.776C182.11 6.656 182.258 6.596 182.434 6.596C182.61 6.596 182.758 6.656 182.878 6.776C182.998 6.888 183.058 7.024 183.058 7.184C183.058 7.36 182.998 7.508 182.878 7.628C182.758 7.748 182.61 7.808 182.434 7.808ZM188.641 9.14C189.433 9.14 190.061 9.372 190.525 9.836C190.997 10.292 191.233 10.96 191.233 11.84V15.5H190.381V11.924C190.381 11.268 190.217 10.768 189.889 10.424C189.561 10.08 189.093 9.908 188.485 9.908C187.805 9.908 187.265 10.112 186.865 10.52C186.473 10.92 186.277 11.476 186.277 12.188V15.5H185.425V9.188H186.241V10.352C186.473 9.968 186.793 9.672 187.201 9.464C187.617 9.248 188.097 9.14 188.641 9.14ZM199.614 9.188V14.732C199.614 15.804 199.35 16.596 198.822 17.108C198.302 17.628 197.514 17.888 196.458 17.888C195.874 17.888 195.318 17.8 194.79 17.624C194.27 17.456 193.846 17.22 193.518 16.916L193.95 16.268C194.254 16.54 194.622 16.752 195.054 16.904C195.494 17.056 195.954 17.132 196.434 17.132C197.234 17.132 197.822 16.944 198.198 16.568C198.574 16.2 198.762 15.624 198.762 14.84V14.036C198.498 14.436 198.15 14.74 197.718 14.948C197.294 15.156 196.822 15.26 196.302 15.26C195.71 15.26 195.17 15.132 194.682 14.876C194.202 14.612 193.822 14.248 193.542 13.784C193.27 13.312 193.134 12.78 193.134 12.188C193.134 11.596 193.27 11.068 193.542 10.604C193.822 10.14 194.202 9.78 194.682 9.524C195.162 9.268 195.702 9.14 196.302 9.14C196.838 9.14 197.322 9.248 197.754 9.464C198.186 9.68 198.534 9.992 198.798 10.4V9.188H199.614ZM196.386 14.504C196.842 14.504 197.254 14.408 197.622 14.216C197.99 14.016 198.274 13.74 198.474 13.388C198.682 13.036 198.786 12.636 198.786 12.188C198.786 11.74 198.682 11.344 198.474 11C198.274 10.648 197.99 10.376 197.622 10.184C197.262 9.984 196.85 9.884 196.386 9.884C195.93 9.884 195.518 9.98 195.15 10.172C194.79 10.364 194.506 10.636 194.298 10.988C194.098 11.34 193.998 11.74 193.998 12.188C193.998 12.636 194.098 13.036 194.298 13.388C194.506 13.74 194.79 14.016 195.15 14.216C195.518 14.408 195.93 14.504 196.386 14.504ZM203.888 15.56C203.376 15.56 202.884 15.488 202.412 15.344C201.948 15.192 201.584 15.004 201.32 14.78L201.704 14.108C201.968 14.316 202.3 14.488 202.7 14.624C203.1 14.752 203.516 14.816 203.948 14.816C204.524 14.816 204.948 14.728 205.22 14.552C205.5 14.368 205.64 14.112 205.64 13.784C205.64 13.552 205.564 13.372 205.412 13.244C205.26 13.108 205.068 13.008 204.836 12.944C204.604 12.872 204.296 12.804 203.912 12.74C203.4 12.644 202.988 12.548 202.676 12.452C202.364 12.348 202.096 12.176 201.872 11.936C201.656 11.696 201.548 11.364 201.548 10.94C201.548 10.412 201.768 9.98 202.208 9.644C202.648 9.308 203.26 9.14 204.044 9.14C204.452 9.14 204.86 9.196 205.268 9.308C205.676 9.412 206.012 9.552 206.276 9.728L205.904 10.412C205.384 10.052 204.764 9.872 204.044 9.872C203.5 9.872 203.088 9.968 202.808 10.16C202.536 10.352 202.4 10.604 202.4 10.916C202.4 11.156 202.476 11.348 202.628 11.492C202.788 11.636 202.984 11.744 203.216 11.816C203.448 11.88 203.768 11.948 204.176 12.02C204.68 12.116 205.084 12.212 205.388 12.308C205.692 12.404 205.952 12.568 206.168 12.8C206.384 13.032 206.492 13.352 206.492 13.76C206.492 14.312 206.26 14.752 205.796 15.08C205.34 15.4 204.704 15.56 203.888 15.56Z" fill="white"/>
<defs>
<clipPath id="clip0_1_38">
<rect width="130.068" height="22.0136" fill="white" transform="translate(0.96582 0.493195)"/>
</clipPath>
</defs>
</svg>
