<svg width="207" height="23" viewBox="0 0 207 23" fill="none" xmlns="http://www.w3.org/2000/svg">
<g clip-path="url(#clip0_1_88)">
<path d="M20.5966 8.91256C20.539 8.74274 20.4329 8.59353 20.2914 8.48335C20.1499 8.37316 19.9792 8.30681 19.8005 8.29251L14.5713 7.877L12.3085 2.86798C12.2364 2.70665 12.1192 2.56963 11.971 2.47344C11.8228 2.37726 11.6499 2.32602 11.4732 2.32593C11.2965 2.32583 11.1236 2.37687 10.9752 2.4729C10.8269 2.56892 10.7095 2.70582 10.6373 2.86707L8.37449 7.877L3.14533 8.29251C2.96964 8.30642 2.80168 8.37066 2.66154 8.47754C2.52141 8.58442 2.41503 8.7294 2.35513 8.89516C2.29524 9.06091 2.28436 9.24041 2.32381 9.41218C2.36326 9.58395 2.45136 9.74072 2.57757 9.86373L6.44187 13.6308L5.07519 19.5488C5.0337 19.7279 5.047 19.9154 5.11337 20.0869C5.17974 20.2584 5.29612 20.4059 5.44741 20.5105C5.5987 20.615 5.7779 20.6716 5.96178 20.673C6.14565 20.6744 6.3257 20.6205 6.47856 20.5183L11.4729 17.1888L16.4672 20.5183C16.6235 20.6221 16.8077 20.6755 16.9952 20.6713C17.1827 20.6672 17.3645 20.6058 17.516 20.4953C17.6675 20.3848 17.7816 20.2306 17.8429 20.0533C17.9041 19.8761 17.9097 19.6843 17.8587 19.5039L16.1811 13.6336L20.3416 9.88941C20.6141 9.64359 20.714 9.26019 20.5966 8.91256Z" fill="#F3CD03"/>
<path d="M47.6115 8.91256C47.5539 8.74274 47.4478 8.59353 47.3063 8.48335C47.1648 8.37316 46.9941 8.30681 46.8154 8.29251L41.5862 7.877L39.3234 2.86798C39.2513 2.70665 39.1341 2.56963 38.9859 2.47344C38.8377 2.37726 38.6648 2.32602 38.4881 2.32593C38.3114 2.32583 38.1385 2.37687 37.9901 2.4729C37.8418 2.56892 37.7244 2.70582 37.6522 2.86707L35.3894 7.877L30.1602 8.29251C29.9845 8.30642 29.8166 8.37066 29.6764 8.47754C29.5363 8.58442 29.4299 8.7294 29.37 8.89516C29.3101 9.06091 29.2993 9.24041 29.3387 9.41218C29.3781 9.58395 29.4662 9.74072 29.5925 9.86373L33.4568 13.6308L32.0901 19.5488C32.0486 19.7279 32.0619 19.9154 32.1283 20.0869C32.1946 20.2584 32.311 20.4059 32.4623 20.5105C32.6136 20.615 32.7928 20.6716 32.9767 20.673C33.1605 20.6744 33.3406 20.6205 33.4935 20.5183L38.4878 17.1888L43.4821 20.5183C43.6384 20.6221 43.8226 20.6755 44.0101 20.6713C44.1976 20.6672 44.3794 20.6058 44.5309 20.4953C44.6824 20.3848 44.7965 20.2306 44.8578 20.0533C44.919 19.8761 44.9246 19.6843 44.8736 19.5039L43.196 13.6336L47.3565 9.88941C47.629 9.64359 47.7289 9.26019 47.6115 8.91256Z" fill="#F3CD03"/>
<path d="M74.6228 8.91256C74.5651 8.74274 74.459 8.59353 74.3175 8.48335C74.176 8.37316 74.0054 8.30681 73.8266 8.29251L68.5974 7.877L66.3346 2.86798C66.2626 2.70665 66.1453 2.56963 65.9971 2.47344C65.8489 2.37726 65.676 2.32602 65.4993 2.32593C65.3226 2.32583 65.1497 2.37687 65.0014 2.4729C64.853 2.56892 64.7357 2.70582 64.6634 2.86707L62.4006 7.877L57.1715 8.29251C56.9958 8.30642 56.8278 8.37066 56.6877 8.47754C56.5475 8.58442 56.4411 8.7294 56.3813 8.89516C56.3214 9.06091 56.3105 9.24041 56.3499 9.41218C56.3894 9.58395 56.4775 9.74072 56.6037 9.86373L60.468 13.6308L59.1013 19.5488C59.0598 19.7279 59.0731 19.9154 59.1395 20.0869C59.2059 20.2584 59.3222 20.4059 59.4735 20.5105C59.6248 20.615 59.804 20.6716 59.9879 20.673C60.1718 20.6744 60.3518 20.6205 60.5047 20.5183L65.499 17.1888L70.4934 20.5183C70.6496 20.6221 70.8339 20.6755 71.0214 20.6713C71.2088 20.6672 71.3906 20.6058 71.5421 20.4953C71.6937 20.3848 71.8077 20.2306 71.869 20.0533C71.9303 19.8761 71.9358 19.6843 71.8848 19.5039L70.2072 13.6336L74.3678 9.88941C74.6402 9.64359 74.7402 9.26019 74.6228 8.91256Z" fill="#F3CD03"/>
<path d="M101.636 8.91256C101.579 8.74274 101.473 8.59353 101.331 8.48335C101.19 8.37316 101.019 8.30681 100.84 8.29251L95.6111 7.877L93.3483 2.86798C93.2762 2.70665 93.159 2.56963 93.0108 2.47344C92.8626 2.37726 92.6897 2.32602 92.513 2.32593C92.3363 2.32583 92.1634 2.37687 92.015 2.4729C91.8667 2.56892 91.7493 2.70582 91.6771 2.86707L89.4143 7.877L84.1851 8.29251C84.0094 8.30642 83.8415 8.37066 83.7013 8.47754C83.5612 8.58442 83.4548 8.7294 83.3949 8.89516C83.335 9.06091 83.3242 9.24041 83.3636 9.41218C83.4031 9.58395 83.4912 9.74072 83.6174 9.86373L87.4817 13.6308L86.115 19.5488C86.0735 19.7279 86.0868 19.9154 86.1532 20.0869C86.2195 20.2584 86.3359 20.4059 86.4872 20.5105C86.6385 20.615 86.8177 20.6716 87.0016 20.673C87.1854 20.6744 87.3655 20.6205 87.5184 20.5183L92.5127 17.1888L97.507 20.5183C97.6633 20.6221 97.8475 20.6755 98.035 20.6713C98.2225 20.6672 98.4043 20.6058 98.5558 20.4953C98.7073 20.3848 98.8214 20.2306 98.8827 20.0533C98.9439 19.8761 98.9495 19.6843 98.8985 19.5039L97.2209 13.6336L101.381 9.88941C101.654 9.64359 101.754 9.26019 101.636 8.91256Z" fill="#F3CD03"/>
<path d="M114.497 13.6308L113.131 19.5488C113.088 19.728 113.101 19.9158 113.167 20.0877C113.233 20.2596 113.35 20.4075 113.501 20.5122C113.653 20.6169 113.832 20.6735 114.016 20.6746C114.2 20.6757 114.381 20.6212 114.533 20.5183L119.528 17.1888L124.522 20.5183C124.678 20.6221 124.862 20.6755 125.05 20.6714C125.237 20.6673 125.419 20.6058 125.571 20.4953C125.722 20.3849 125.836 20.2306 125.898 20.0534C125.959 19.8761 125.964 19.6844 125.913 19.5039L124.236 13.6336L128.396 9.88944C128.53 9.76946 128.625 9.61304 128.67 9.43955C128.715 9.26605 128.709 9.08308 128.651 8.91327C128.594 8.74345 128.488 8.59424 128.346 8.48408C128.205 8.37392 128.034 8.30764 127.855 8.29345L122.626 7.87703L120.363 2.86801C120.291 2.70672 120.174 2.56976 120.025 2.47366C119.877 2.37755 119.704 2.32642 119.528 2.32642C119.351 2.32642 119.178 2.37755 119.03 2.47366C118.881 2.56976 118.764 2.70672 118.692 2.86801L116.429 7.87703L111.2 8.29254C111.024 8.30645 110.856 8.37069 110.716 8.47757C110.576 8.58445 110.47 8.72943 110.41 8.89518C110.35 9.06094 110.339 9.24044 110.378 9.41221C110.418 9.58398 110.506 9.74074 110.632 9.86376L114.497 13.6308ZM117.114 9.66288C117.278 9.64998 117.435 9.59328 117.57 9.49871C117.704 9.40414 117.81 9.27519 117.877 9.12538L119.528 5.47387L121.178 9.12538C121.245 9.27519 121.351 9.40414 121.486 9.49871C121.62 9.59328 121.777 9.64998 121.941 9.66288L125.584 9.95181L122.584 12.6521C122.323 12.887 122.22 13.2484 122.315 13.5859L123.464 17.608L120.038 15.3231C119.887 15.2222 119.71 15.1683 119.529 15.1683C119.348 15.1683 119.171 15.2222 119.02 15.3231L115.439 17.7107L116.403 13.5409C116.438 13.3876 116.433 13.2277 116.389 13.0767C116.344 12.9257 116.262 12.7887 116.149 12.6787L113.363 9.9619L117.114 9.66288Z" fill="#F3CD03"/>
</g>
<path d="M144.169 10.7C145.049 10.748 145.717 10.988 146.173 11.42C146.637 11.844 146.869 12.4 146.869 13.088C146.869 13.568 146.753 13.996 146.521 14.372C146.289 14.74 145.945 15.032 145.489 15.248C145.033 15.464 144.477 15.572 143.821 15.572C143.213 15.572 142.637 15.476 142.093 15.284C141.557 15.084 141.125 14.82 140.797 14.492L141.217 13.808C141.497 14.096 141.869 14.332 142.333 14.516C142.797 14.692 143.293 14.78 143.821 14.78C144.509 14.78 145.041 14.632 145.417 14.336C145.793 14.032 145.981 13.616 145.981 13.088C145.981 12.568 145.793 12.16 145.417 11.864C145.041 11.568 144.473 11.42 143.713 11.42H143.113V10.784L145.441 7.868H141.145V7.1H146.545V7.712L144.169 10.7ZM151.634 15.572C150.986 15.572 150.406 15.4 149.894 15.056C149.39 14.712 148.994 14.22 148.706 13.58C148.426 12.932 148.286 12.172 148.286 11.3C148.286 10.428 148.426 9.672 148.706 9.032C148.994 8.384 149.39 7.888 149.894 7.544C150.406 7.2 150.986 7.028 151.634 7.028C152.282 7.028 152.858 7.2 153.362 7.544C153.874 7.888 154.274 8.384 154.562 9.032C154.85 9.672 154.994 10.428 154.994 11.3C154.994 12.172 154.85 12.932 154.562 13.58C154.274 14.22 153.874 14.712 153.362 15.056C152.858 15.4 152.282 15.572 151.634 15.572ZM151.634 14.78C152.122 14.78 152.55 14.644 152.918 14.372C153.294 14.1 153.586 13.704 153.794 13.184C154.002 12.664 154.106 12.036 154.106 11.3C154.106 10.564 154.002 9.936 153.794 9.416C153.586 8.896 153.294 8.5 152.918 8.228C152.55 7.956 152.122 7.82 151.634 7.82C151.146 7.82 150.714 7.956 150.338 8.228C149.97 8.5 149.682 8.896 149.474 9.416C149.266 9.936 149.162 10.564 149.162 11.3C149.162 12.036 149.266 12.664 149.474 13.184C149.682 13.704 149.97 14.1 150.338 14.372C150.714 14.644 151.146 14.78 151.634 14.78ZM166.252 15.5L164.332 12.8C164.116 12.824 163.892 12.836 163.66 12.836H161.404V15.5H160.516V7.1H163.66C164.732 7.1 165.572 7.356 166.18 7.868C166.788 8.38 167.092 9.084 167.092 9.98C167.092 10.636 166.924 11.192 166.588 11.648C166.26 12.096 165.788 12.42 165.172 12.62L167.224 15.5H166.252ZM163.636 12.08C164.468 12.08 165.104 11.896 165.544 11.528C165.984 11.16 166.204 10.644 166.204 9.98C166.204 9.3 165.984 8.78 165.544 8.42C165.104 8.052 164.468 7.868 163.636 7.868H161.404V12.08H163.636ZM171.357 9.14C172.181 9.14 172.813 9.348 173.253 9.764C173.693 10.172 173.913 10.78 173.913 11.588V15.5H173.097V14.516C172.905 14.844 172.621 15.1 172.245 15.284C171.877 15.468 171.437 15.56 170.925 15.56C170.221 15.56 169.661 15.392 169.245 15.056C168.829 14.72 168.621 14.276 168.621 13.724C168.621 13.188 168.813 12.756 169.197 12.428C169.589 12.1 170.209 11.936 171.057 11.936H173.061V11.552C173.061 11.008 172.909 10.596 172.605 10.316C172.301 10.028 171.857 9.884 171.273 9.884C170.873 9.884 170.489 9.952 170.121 10.088C169.753 10.216 169.437 10.396 169.173 10.628L168.789 9.992C169.109 9.72 169.493 9.512 169.941 9.368C170.389 9.216 170.861 9.14 171.357 9.14ZM171.057 14.888C171.537 14.888 171.949 14.78 172.293 14.564C172.637 14.34 172.893 14.02 173.061 13.604V12.572H171.081C170.001 12.572 169.461 12.948 169.461 13.7C169.461 14.068 169.601 14.36 169.881 14.576C170.161 14.784 170.553 14.888 171.057 14.888ZM179.751 15.116C179.591 15.26 179.391 15.372 179.151 15.452C178.919 15.524 178.675 15.56 178.419 15.56C177.827 15.56 177.371 15.4 177.051 15.08C176.731 14.76 176.571 14.308 176.571 13.724V9.908H175.443V9.188H176.571V7.808H177.423V9.188H179.343V9.908H177.423V13.676C177.423 14.052 177.515 14.34 177.699 14.54C177.891 14.732 178.163 14.828 178.515 14.828C178.691 14.828 178.859 14.8 179.019 14.744C179.187 14.688 179.331 14.608 179.451 14.504L179.751 15.116ZM181.502 9.188H182.354V15.5H181.502V9.188ZM181.934 7.808C181.758 7.808 181.61 7.748 181.49 7.628C181.37 7.508 181.31 7.364 181.31 7.196C181.31 7.036 181.37 6.896 181.49 6.776C181.61 6.656 181.758 6.596 181.934 6.596C182.11 6.596 182.258 6.656 182.378 6.776C182.498 6.888 182.558 7.024 182.558 7.184C182.558 7.36 182.498 7.508 182.378 7.628C182.258 7.748 182.11 7.808 181.934 7.808ZM188.141 9.14C188.933 9.14 189.561 9.372 190.025 9.836C190.497 10.292 190.733 10.96 190.733 11.84V15.5H189.881V11.924C189.881 11.268 189.717 10.768 189.389 10.424C189.061 10.08 188.593 9.908 187.985 9.908C187.305 9.908 186.765 10.112 186.365 10.52C185.973 10.92 185.777 11.476 185.777 12.188V15.5H184.925V9.188H185.741V10.352C185.973 9.968 186.293 9.672 186.701 9.464C187.117 9.248 187.597 9.14 188.141 9.14ZM199.114 9.188V14.732C199.114 15.804 198.85 16.596 198.322 17.108C197.802 17.628 197.014 17.888 195.958 17.888C195.374 17.888 194.818 17.8 194.29 17.624C193.77 17.456 193.346 17.22 193.018 16.916L193.45 16.268C193.754 16.54 194.122 16.752 194.554 16.904C194.994 17.056 195.454 17.132 195.934 17.132C196.734 17.132 197.322 16.944 197.698 16.568C198.074 16.2 198.262 15.624 198.262 14.84V14.036C197.998 14.436 197.65 14.74 197.218 14.948C196.794 15.156 196.322 15.26 195.802 15.26C195.21 15.26 194.67 15.132 194.182 14.876C193.702 14.612 193.322 14.248 193.042 13.784C192.77 13.312 192.634 12.78 192.634 12.188C192.634 11.596 192.77 11.068 193.042 10.604C193.322 10.14 193.702 9.78 194.182 9.524C194.662 9.268 195.202 9.14 195.802 9.14C196.338 9.14 196.822 9.248 197.254 9.464C197.686 9.68 198.034 9.992 198.298 10.4V9.188H199.114ZM195.886 14.504C196.342 14.504 196.754 14.408 197.122 14.216C197.49 14.016 197.774 13.74 197.974 13.388C198.182 13.036 198.286 12.636 198.286 12.188C198.286 11.74 198.182 11.344 197.974 11C197.774 10.648 197.49 10.376 197.122 10.184C196.762 9.984 196.35 9.884 195.886 9.884C195.43 9.884 195.018 9.98 194.65 10.172C194.29 10.364 194.006 10.636 193.798 10.988C193.598 11.34 193.498 11.74 193.498 12.188C193.498 12.636 193.598 13.036 193.798 13.388C194.006 13.74 194.29 14.016 194.65 14.216C195.018 14.408 195.43 14.504 195.886 14.504ZM203.388 15.56C202.876 15.56 202.384 15.488 201.912 15.344C201.448 15.192 201.084 15.004 200.82 14.78L201.204 14.108C201.468 14.316 201.8 14.488 202.2 14.624C202.6 14.752 203.016 14.816 203.448 14.816C204.024 14.816 204.448 14.728 204.72 14.552C205 14.368 205.14 14.112 205.14 13.784C205.14 13.552 205.064 13.372 204.912 13.244C204.76 13.108 204.568 13.008 204.336 12.944C204.104 12.872 203.796 12.804 203.412 12.74C202.9 12.644 202.488 12.548 202.176 12.452C201.864 12.348 201.596 12.176 201.372 11.936C201.156 11.696 201.048 11.364 201.048 10.94C201.048 10.412 201.268 9.98 201.708 9.644C202.148 9.308 202.76 9.14 203.544 9.14C203.952 9.14 204.36 9.196 204.768 9.308C205.176 9.412 205.512 9.552 205.776 9.728L205.404 10.412C204.884 10.052 204.264 9.872 203.544 9.872C203 9.872 202.588 9.968 202.308 10.16C202.036 10.352 201.9 10.604 201.9 10.916C201.9 11.156 201.976 11.348 202.128 11.492C202.288 11.636 202.484 11.744 202.716 11.816C202.948 11.88 203.268 11.948 203.676 12.02C204.18 12.116 204.584 12.212 204.888 12.308C205.192 12.404 205.452 12.568 205.668 12.8C205.884 13.032 205.992 13.352 205.992 13.76C205.992 14.312 205.76 14.752 205.296 15.08C204.84 15.4 204.204 15.56 203.388 15.56Z" fill="#737373"/>
<defs>
<clipPath id="clip0_1_88">
<rect width="130.068" height="22.0136" fill="white" transform="translate(0.46582 0.493164)"/>
</clipPath>
</defs>
</svg>
