<svg width="131" height="23" viewBox="0 0 131 23" fill="none" xmlns="http://www.w3.org/2000/svg">
<g clip-path="url(#clip0_1_110)">
<path d="M20.6308 8.91939C20.5732 8.74958 20.467 8.60037 20.3256 8.49018C20.1841 8.37999 20.0134 8.31365 19.8347 8.29934L14.6055 7.88383L12.3427 2.87482C12.2706 2.71349 12.1534 2.57646 12.0052 2.48028C11.857 2.38409 11.6841 2.33286 11.5074 2.33276C11.3307 2.33267 11.1577 2.38371 11.0094 2.47973C10.8611 2.57575 10.7437 2.71265 10.6715 2.8739L8.40867 7.88383L3.17951 8.29934C3.00382 8.31326 2.83586 8.3775 2.69572 8.48438C2.55559 8.59125 2.44921 8.73624 2.38931 8.90199C2.32941 9.06774 2.31854 9.24724 2.35799 9.41901C2.39744 9.59078 2.48553 9.74755 2.61175 9.87056L6.47605 13.6376L5.10937 19.5556C5.06788 19.7348 5.08118 19.9222 5.14755 20.0937C5.21392 20.2652 5.3303 20.4128 5.48159 20.5173C5.63288 20.6218 5.81208 20.6785 5.99596 20.6799C6.17983 20.6813 6.35988 20.6274 6.51274 20.5252L11.5071 17.1956L16.5014 20.5252C16.6577 20.6289 16.8419 20.6823 17.0294 20.6782C17.2169 20.6741 17.3986 20.6126 17.5502 20.5022C17.7017 20.3917 17.8158 20.2374 17.8771 20.0602C17.9383 19.8829 17.9438 19.6912 17.8929 19.5107L16.2152 13.6404L20.3758 9.89625C20.6482 9.65043 20.7482 9.26702 20.6308 8.91939Z" fill="#F3CD03"/>
<path d="M47.6457 8.91939C47.5881 8.74958 47.4819 8.60037 47.3404 8.49018C47.199 8.37999 47.0283 8.31365 46.8495 8.29934L41.6204 7.88383L39.3576 2.87482C39.2855 2.71349 39.1683 2.57646 39.0201 2.48028C38.8719 2.38409 38.699 2.33286 38.5223 2.33276C38.3456 2.33267 38.1726 2.38371 38.0243 2.47973C37.876 2.57575 37.7586 2.71265 37.6864 2.8739L35.4236 7.88383L30.1944 8.29934C30.0187 8.31326 29.8508 8.3775 29.7106 8.48438C29.5705 8.59125 29.4641 8.73624 29.4042 8.90199C29.3443 9.06774 29.3334 9.24724 29.3729 9.41901C29.4123 9.59078 29.5004 9.74755 29.6266 9.87056L33.4909 13.6376L32.1243 19.5556C32.0828 19.7348 32.0961 19.9222 32.1624 20.0937C32.2288 20.2652 32.3452 20.4128 32.4965 20.5173C32.6478 20.6218 32.827 20.6785 33.0109 20.6799C33.1947 20.6813 33.3748 20.6274 33.5276 20.5252L38.522 17.1956L43.5163 20.5252C43.6726 20.6289 43.8568 20.6823 44.0443 20.6782C44.2318 20.6741 44.4135 20.6126 44.5651 20.5022C44.7166 20.3917 44.8307 20.2374 44.892 20.0602C44.9532 19.8829 44.9587 19.6912 44.9078 19.5107L43.2301 13.6404L47.3907 9.89625C47.6631 9.65043 47.7631 9.26702 47.6457 8.91939Z" fill="#F3CD03"/>
<path d="M74.6569 8.91939C74.5993 8.74958 74.4932 8.60037 74.3517 8.49018C74.2102 8.37999 74.0395 8.31365 73.8608 8.29934L68.6316 7.88383L66.3688 2.87482C66.2967 2.71349 66.1795 2.57646 66.0313 2.48028C65.8831 2.38409 65.7102 2.33286 65.5335 2.33276C65.3568 2.33267 65.1839 2.38371 65.0355 2.47973C64.8872 2.57575 64.7698 2.71265 64.6976 2.8739L62.4348 7.88383L57.2056 8.29934C57.0299 8.31326 56.862 8.3775 56.7218 8.48438C56.5817 8.59125 56.4753 8.73624 56.4154 8.90199C56.3555 9.06774 56.3447 9.24724 56.3841 9.41901C56.4236 9.59078 56.5117 9.74755 56.6379 9.87056L60.5022 13.6376L59.1355 19.5556C59.094 19.7348 59.1073 19.9222 59.1737 20.0937C59.24 20.2652 59.3564 20.4128 59.5077 20.5173C59.659 20.6218 59.8382 20.6785 60.0221 20.6799C60.206 20.6813 60.386 20.6274 60.5389 20.5252L65.5332 17.1956L70.5275 20.5252C70.6838 20.6289 70.868 20.6823 71.0555 20.6782C71.243 20.6741 71.4248 20.6126 71.5763 20.5022C71.7278 20.3917 71.8419 20.2374 71.9032 20.0602C71.9644 19.8829 71.97 19.6912 71.919 19.5107L70.2414 13.6404L74.4019 9.89625C74.6744 9.65043 74.7743 9.26702 74.6569 8.91939Z" fill="#F3CD03"/>
<path d="M101.671 8.91939C101.613 8.74958 101.507 8.60037 101.365 8.49018C101.224 8.37999 101.053 8.31365 100.874 8.29934L95.6453 7.88383L93.3825 2.87482C93.3104 2.71349 93.1932 2.57646 93.045 2.48028C92.8968 2.38409 92.7239 2.33286 92.5472 2.33276C92.3705 2.33267 92.1975 2.38371 92.0492 2.47973C91.9009 2.57575 91.7835 2.71265 91.7113 2.8739L89.4485 7.88383L84.2193 8.29934C84.0436 8.31326 83.8757 8.3775 83.7355 8.48438C83.5954 8.59125 83.489 8.73624 83.4291 8.90199C83.3692 9.06774 83.3583 9.24724 83.3978 9.41901C83.4372 9.59078 83.5253 9.74755 83.6515 9.87056L87.5158 13.6376L86.1492 19.5556C86.1077 19.7348 86.121 19.9222 86.1873 20.0937C86.2537 20.2652 86.3701 20.4128 86.5214 20.5173C86.6727 20.6218 86.8519 20.6785 87.0358 20.6799C87.2196 20.6813 87.3997 20.6274 87.5525 20.5252L92.5469 17.1956L97.5412 20.5252C97.6975 20.6289 97.8817 20.6823 98.0692 20.6782C98.2567 20.6741 98.4384 20.6126 98.59 20.5022C98.7415 20.3917 98.8556 20.2374 98.9169 20.0602C98.9781 19.8829 98.9836 19.6912 98.9327 19.5107L97.255 13.6404L101.416 9.89625C101.688 9.65043 101.788 9.26702 101.671 8.91939Z" fill="#F3CD03"/>
<path d="M114.532 13.6377L113.165 19.5557C113.123 19.7349 113.135 19.9227 113.201 20.0945C113.268 20.2664 113.384 20.4143 113.535 20.5191C113.687 20.6238 113.866 20.6804 114.05 20.6814C114.235 20.6825 114.415 20.6281 114.567 20.5252L119.562 17.1956L124.556 20.5252C124.712 20.6289 124.897 20.6823 125.084 20.6782C125.272 20.6741 125.453 20.6127 125.605 20.5022C125.756 20.3917 125.87 20.2375 125.932 20.0602C125.993 19.883 125.999 19.6912 125.948 19.5107L124.27 13.6404L128.431 9.89628C128.564 9.77629 128.659 9.61988 128.704 9.44638C128.75 9.27289 128.743 9.08992 128.685 8.9201C128.628 8.75029 128.522 8.60107 128.38 8.49091C128.239 8.38075 128.068 8.31448 127.889 8.30029L122.66 7.88386L120.397 2.87485C120.325 2.71356 120.208 2.5766 120.06 2.48049C119.911 2.38439 119.738 2.33325 119.562 2.33325C119.385 2.33325 119.212 2.38439 119.064 2.48049C118.916 2.5766 118.798 2.71356 118.726 2.87485L116.463 7.88386L111.234 8.29937C111.059 8.31329 110.891 8.37753 110.75 8.48441C110.61 8.59128 110.504 8.73627 110.444 8.90202C110.384 9.06777 110.373 9.24727 110.413 9.41904C110.452 9.59081 110.54 9.74758 110.666 9.87059L114.532 13.6377ZM117.149 9.66972C117.312 9.65682 117.469 9.60012 117.604 9.50555C117.738 9.41098 117.844 9.28203 117.912 9.13222L119.562 5.48071L121.212 9.13222C121.279 9.28203 121.386 9.41098 121.52 9.50555C121.654 9.60012 121.811 9.65682 121.975 9.66972L125.618 9.95865L122.618 12.659C122.357 12.8938 122.254 13.2552 122.349 13.5927L123.499 17.6148L120.072 15.33C119.921 15.229 119.744 15.1751 119.563 15.1751C119.382 15.1751 119.205 15.229 119.055 15.33L115.474 17.7175L116.437 13.5478C116.472 13.3944 116.467 13.2346 116.423 13.0836C116.379 12.9326 116.296 12.7955 116.184 12.6856L113.397 9.96874L117.149 9.66972Z" fill="#F3CD03"/>
</g>
<defs>
<clipPath id="clip0_1_110">
<rect width="130.068" height="22.0136" fill="white" transform="translate(0.5 0.5)"/>
</clipPath>
</defs>
</svg>
